<mxfile host="65bd71144e">
    <diagram id="-Tj5QXphbcU9HTFex_Cf" name="Page-1">
        <mxGraphModel dx="857" dy="1174" grid="1" gridSize="10" guides="1" tooltips="1" connect="1" arrows="1" fold="1" page="1" pageScale="1" pageWidth="850" pageHeight="1100" math="0" shadow="0">
            <root>
                <mxCell id="0"/>
                <mxCell id="1" parent="0"/>
                <mxCell id="8" value="" style="endArrow=none;html=1;fillColor=#008a00;strokeColor=#005700;" edge="1" parent="1">
                    <mxGeometry width="50" height="50" relative="1" as="geometry">
                        <mxPoint x="50" y="310" as="sourcePoint"/>
                        <mxPoint x="190" y="250" as="targetPoint"/>
                    </mxGeometry>
                </mxCell>
                <mxCell id="9" value="" style="endArrow=none;html=1;dashed=1;" edge="1" parent="1">
                    <mxGeometry width="50" height="50" relative="1" as="geometry">
                        <mxPoint x="370" y="270" as="sourcePoint"/>
                        <mxPoint x="190" y="250" as="targetPoint"/>
                    </mxGeometry>
                </mxCell>
                <mxCell id="10" value="" style="endArrow=none;html=1;dashed=1;" edge="1" parent="1">
                    <mxGeometry width="50" height="50" relative="1" as="geometry">
                        <mxPoint x="370" y="270" as="sourcePoint"/>
                        <mxPoint x="230" y="330" as="targetPoint"/>
                    </mxGeometry>
                </mxCell>
                <mxCell id="11" value="" style="endArrow=none;html=1;fillColor=#60a917;strokeColor=#2D7600;" edge="1" parent="1">
                    <mxGeometry width="50" height="50" relative="1" as="geometry">
                        <mxPoint x="50" y="310" as="sourcePoint"/>
                        <mxPoint x="230" y="330" as="targetPoint"/>
                    </mxGeometry>
                </mxCell>
                <mxCell id="16" value="" style="endArrow=none;html=1;dashed=1;" edge="1" parent="1">
                    <mxGeometry width="50" height="50" relative="1" as="geometry">
                        <mxPoint x="49.999999999999886" y="130" as="sourcePoint"/>
                        <mxPoint x="190" y="70" as="targetPoint"/>
                    </mxGeometry>
                </mxCell>
                <mxCell id="17" value="" style="endArrow=none;html=1;fillColor=#a20025;strokeColor=#6F0000;" edge="1" parent="1">
                    <mxGeometry width="50" height="50" relative="1" as="geometry">
                        <mxPoint x="370" y="90" as="sourcePoint"/>
                        <mxPoint x="190" y="70" as="targetPoint"/>
                    </mxGeometry>
                </mxCell>
                <mxCell id="18" value="" style="endArrow=none;html=1;fillColor=#a20025;strokeColor=#6F0000;endFill=0;startArrow=none;startFill=0;startSize=15;" edge="1" parent="1">
                    <mxGeometry width="50" height="50" relative="1" as="geometry">
                        <mxPoint x="370" y="90" as="sourcePoint"/>
                        <mxPoint x="230" y="150" as="targetPoint"/>
                    </mxGeometry>
                </mxCell>
                <mxCell id="19" value="" style="endArrow=none;html=1;dashed=1;" edge="1" parent="1">
                    <mxGeometry width="50" height="50" relative="1" as="geometry">
                        <mxPoint x="49.999999999999886" y="130" as="sourcePoint"/>
                        <mxPoint x="230" y="150" as="targetPoint"/>
                    </mxGeometry>
                </mxCell>
                <mxCell id="20" value="" style="endArrow=none;html=1;fillColor=#008a00;strokeColor=#005700;" edge="1" parent="1">
                    <mxGeometry width="50" height="50" relative="1" as="geometry">
                        <mxPoint x="50" y="310" as="sourcePoint"/>
                        <mxPoint x="50" y="130" as="targetPoint"/>
                    </mxGeometry>
                </mxCell>
                <mxCell id="21" value="" style="endArrow=none;html=1;dashed=1;" edge="1" parent="1">
                    <mxGeometry width="50" height="50" relative="1" as="geometry">
                        <mxPoint x="229.9999999999999" y="330" as="sourcePoint"/>
                        <mxPoint x="229.9999999999999" y="150" as="targetPoint"/>
                    </mxGeometry>
                </mxCell>
                <mxCell id="22" value="" style="endArrow=none;html=1;dashed=1;" edge="1" parent="1">
                    <mxGeometry width="50" height="50" relative="1" as="geometry">
                        <mxPoint x="190" y="250" as="sourcePoint"/>
                        <mxPoint x="190" y="70" as="targetPoint"/>
                    </mxGeometry>
                </mxCell>
                <mxCell id="23" value="" style="endArrow=none;html=1;fillColor=#a20025;strokeColor=#6F0000;" edge="1" parent="1">
                    <mxGeometry width="50" height="50" relative="1" as="geometry">
                        <mxPoint x="370" y="270" as="sourcePoint"/>
                        <mxPoint x="370" y="90" as="targetPoint"/>
                    </mxGeometry>
                </mxCell>
                <mxCell id="24" value="111" style="text;html=1;fillColor=none;align=center;verticalAlign=middle;whiteSpace=wrap;rounded=0;fontSize=20;strokeColor=#f0f0f0;" vertex="1" parent="1">
                    <mxGeometry x="20" y="320" width="40" height="20" as="geometry"/>
                </mxCell>
                <mxCell id="25" value="011" style="text;html=1;strokeColor=none;fillColor=none;align=center;verticalAlign=middle;whiteSpace=wrap;rounded=0;fontSize=20;" vertex="1" parent="1">
                    <mxGeometry x="210" y="340" width="40" height="20" as="geometry"/>
                </mxCell>
                <mxCell id="26" value="101" style="text;html=1;strokeColor=none;fillColor=none;align=center;verticalAlign=middle;whiteSpace=wrap;rounded=0;fontSize=20;" vertex="1" parent="1">
                    <mxGeometry x="30" y="100" width="40" height="20" as="geometry"/>
                </mxCell>
                <mxCell id="27" value="001" style="text;html=1;strokeColor=none;fillColor=none;align=center;verticalAlign=middle;whiteSpace=wrap;rounded=0;fontSize=20;" vertex="1" parent="1">
                    <mxGeometry x="210" y="120" width="40" height="20" as="geometry"/>
                </mxCell>
                <mxCell id="28" value="010" style="text;html=1;strokeColor=none;fillColor=none;align=center;verticalAlign=middle;whiteSpace=wrap;rounded=0;fontSize=20;" vertex="1" parent="1">
                    <mxGeometry x="375" y="260" width="40" height="20" as="geometry"/>
                </mxCell>
                <mxCell id="29" value="000" style="text;html=1;fillColor=none;align=center;verticalAlign=middle;whiteSpace=wrap;rounded=0;fontSize=20;strokeColor=#f0f0f0;" vertex="1" parent="1">
                    <mxGeometry x="360" y="60" width="40" height="20" as="geometry"/>
                </mxCell>
                <mxCell id="30" value="100" style="text;html=1;strokeColor=none;fillColor=none;align=center;verticalAlign=middle;whiteSpace=wrap;rounded=0;fontSize=20;" vertex="1" parent="1">
                    <mxGeometry x="170" y="40" width="40" height="20" as="geometry"/>
                </mxCell>
                <mxCell id="31" value="110" style="text;html=1;strokeColor=none;fillColor=none;align=center;verticalAlign=middle;whiteSpace=wrap;rounded=0;fontSize=20;" vertex="1" parent="1">
                    <mxGeometry x="150" y="230" width="40" height="20" as="geometry"/>
                </mxCell>
                <mxCell id="32" value="Example Hamming Code" style="text;html=1;strokeColor=none;fillColor=none;align=center;verticalAlign=middle;whiteSpace=wrap;rounded=0;fontSize=20;" vertex="1" parent="1">
                    <mxGeometry x="60" y="10" width="260" height="20" as="geometry"/>
                </mxCell>
                <mxCell id="33" value="representing a single bit with 3&lt;br&gt;(0 - 000, 1 - 111)" style="text;html=1;strokeColor=none;fillColor=none;align=center;verticalAlign=middle;whiteSpace=wrap;rounded=0;fontSize=20;" vertex="1" parent="1">
                    <mxGeometry x="430" y="30" width="155" height="90" as="geometry"/>
                </mxCell>
                <mxCell id="34" value="Can detect an error (not 000 or 111) and correct to the nearest valid" style="text;html=1;strokeColor=none;fillColor=none;align=center;verticalAlign=middle;whiteSpace=wrap;rounded=0;fontSize=20;" vertex="1" parent="1">
                    <mxGeometry x="430" y="120" width="155" height="130" as="geometry"/>
                </mxCell>
                <mxCell id="35" value="Green coloured lines show which pattersn correct to 0 or 1" style="text;html=1;strokeColor=none;fillColor=none;align=center;verticalAlign=middle;whiteSpace=wrap;rounded=0;fontSize=20;" vertex="1" parent="1">
                    <mxGeometry x="430" y="250" width="155" height="110" as="geometry"/>
                </mxCell>
            </root>
        </mxGraphModel>
    </diagram>
</mxfile>